<svg width="31" height="30" viewBox="0 0 31 30" fill="none" xmlns="http://www.w3.org/2000/svg">
<path d="M11.5209 27.8045C12.2126 27.8045 12.7735 27.2437 12.7735 26.5519C12.7735 25.8601 12.2126 25.2993 11.5209 25.2993C10.8291 25.2993 10.2682 25.8601 10.2682 26.5519C10.2682 27.2437 10.8291 27.8045 11.5209 27.8045Z" stroke="#4502C7" stroke-width="3" stroke-linecap="round" stroke-linejoin="round"/>
<path d="M25.2994 27.8045C25.9912 27.8045 26.552 27.2437 26.552 26.5519C26.552 25.8601 25.9912 25.2993 25.2994 25.2993C24.6076 25.2993 24.0468 25.8601 24.0468 26.5519C24.0468 27.2437 24.6076 27.8045 25.2994 27.8045Z" stroke="#4502C7" stroke-width="3" stroke-linecap="round" stroke-linejoin="round"/>
<path d="M1.5 1.5H6.51042L9.8674 18.2724C9.98195 18.8491 10.2957 19.3671 10.7537 19.7358C11.2117 20.1045 11.7848 20.3003 12.3726 20.2891H24.5479C25.1358 20.3003 25.7089 20.1045 26.1669 19.7358C26.6249 19.3671 26.9386 18.8491 27.0531 18.2724L29.0573 7.76303H7.76303" stroke="#4502C7" stroke-width="3" stroke-linecap="round" stroke-linejoin="round"/>
</svg>
